<svg xmlns="http://www.w3.org/2000/svg" xmlns:xlink="http://www.w3.org/1999/xlink" version="1.0" x="0px" y="0px" viewBox="0 0 100 125" style="enable-background:new 0 0 100 100;" xml:space="preserve"><path d="M27.8,82c-0.7,0-1.4-0.3-1.9-0.8l-7.2-7.2c-0.5-0.5-0.8-1.2-0.8-1.9s0.3-1.4,0.8-1.9l3.3-3.3l-2.2-2.2  c-0.5-0.5-0.8-1.2-0.8-1.9c0-0.7,0.3-1.4,0.8-1.9l3.3-3.3l-2-2c-0.5-0.5-0.8-1.2-0.8-1.9c0-0.7,0.3-1.4,0.8-1.9l3-3l0,0  c1-1,2.7-1,3.8,0l6.1,6.1L55,34.1L48.9,28c-0.5-0.5-0.8-1.2-0.8-1.9c0-0.7,0.3-1.4,0.8-1.9l3-3c1-1,2.7-1,3.8,0l2,2l3.3-3.3  c0.5-0.5,1.2-0.8,1.9-0.8c0.7,0,1.4,0.3,1.9,0.8l2.2,2.2l3.3-3.3c1-1,2.7-1,3.8,0l7.2,7.2c1,1,1,2.7,0,3.8L77.9,33l2.2,2.2  c0.5,0.5,0.8,1.2,0.8,1.9c0,0.7-0.3,1.4-0.8,1.9l-3.3,3.3l2,2c0.5,0.5,0.8,1.2,0.8,1.9c0,0.7-0.3,1.4-0.8,1.9l-3,3  c-0.5,0.5-1.2,0.8-1.9,0.8c-0.7,0-1.4-0.3-1.9-0.8l0,0l0,0L65.9,45L45,65.9l6.1,6.1c0.5,0.5,0.8,1.2,0.8,1.9s-0.3,1.4-0.8,1.9l-3,3  c-1,1-2.7,1-3.8,0l-2-2L39,80.1c-1,1-2.7,1-3.8,0L33,77.9l-3.3,3.3C29.2,81.7,28.5,82,27.8,82z M23.7,68.5l-3.3,3.3l0,0  c-0.1,0.1-0.1,0.3-0.1,0.3c0,0.1,0,0.2,0.1,0.3l7.2,7.2c0.2,0.2,0.5,0.2,0.7,0l3.3-3.3L23.7,68.5z M33.8,75.6l3,3  c0.2,0.2,0.5,0.2,0.7,0l3.3-3.3l-16-16l-3.3,3.3l0,0c-0.1,0.1-0.1,0.3-0.1,0.3c0,0.1,0,0.2,0.1,0.3l3,3c0,0,0,0,0,0L33.8,75.6  C33.8,75.6,33.8,75.6,33.8,75.6z M43.2,74.4l2.7,2.7c0.2,0.2,0.5,0.2,0.7,0l3-3c0.1-0.1,0.1-0.3,0.1-0.3c0-0.1,0-0.2-0.1-0.3  l-6.9-6.9c0,0,0,0,0,0L26.5,50.4c-0.2-0.2-0.5-0.2-0.7,0l-3,3c-0.1,0.1-0.1,0.3-0.1,0.3c0,0.1,0,0.2,0.1,0.3l2.7,2.7c0,0,0,0,0,0  L43.2,74.4C43.2,74.4,43.2,74.4,43.2,74.4z M19.6,71.1L19.6,71.1L19.6,71.1z M41.9,62.8l1.6,1.6l20.8-20.8l-7.8-7.8L35.7,56.5  L41.9,62.8z M20.7,61.7L20.7,61.7L20.7,61.7z M66.7,42.7l6.9,6.9v0c0.1,0.1,0.3,0.1,0.3,0.1c0.1,0,0.2,0,0.3-0.1l3-3  c0.2-0.2,0.2-0.5,0-0.7l-2.7-2.7c0,0,0,0,0,0L56.8,25.6c0,0,0,0,0,0l-2.8-2.8c-0.2-0.2-0.5-0.2-0.7,0l-3,3c-0.2,0.2-0.2,0.5,0,0.7  L66.7,42.7C66.6,42.7,66.6,42.7,66.7,42.7z M59.2,24.8l16,16l3.3-3.3c0.1-0.1,0.1-0.3,0.1-0.3s0-0.2-0.1-0.3L63.2,21.4  c-0.1-0.1-0.3-0.1-0.3-0.1s-0.2,0-0.3,0.1L59.2,24.8z M68.5,23.7l7.8,7.8l3.3-3.3c0.1-0.1,0.1-0.3,0.1-0.3c0-0.1,0-0.2-0.1-0.3  l-7.2-7.2c-0.2-0.2-0.5-0.2-0.7,0L68.5,23.7z"/><text x="0" y="115" fill="#000000" font-size="5px" font-weight="bold" font-family="'Helvetica Neue', Helvetica, Arial-Unicode, Arial, Sans-serif">Created by Anshul Ahuja</text><text x="0" y="120" fill="#000000" font-size="5px" font-weight="bold" font-family="'Helvetica Neue', Helvetica, Arial-Unicode, Arial, Sans-serif">from the Noun Project</text></svg>